<svg width="125" height="107" viewBox="0 0 125 107" fill="none" xmlns="http://www.w3.org/2000/svg">
<path d="M103.15 64.4574V58.7211C103.15 50.4614 97.818 46.3316 87.1583 46.3316H76.2392V54.0831H83.6167C89.3119 54.0831 92.1617 55.8324 92.1617 59.333V60.0033L62.7448 68.7213L61.8886 68.9743V68.7213H51.1467V79.7183C51.1467 84.2351 52.896 87.5304 56.3966 89.6061C59.1642 91.3553 63.4562 92.231 69.2747 92.231H103.027V84.3541H71.2877C68.1958 84.3541 66.0184 84.0297 64.7578 83.3768C62.9265 82.2784 62.0118 80.5291 62.0118 78.1269V76.6004L103.15 64.4574Z" fill="#174453"/>
<path d="M26.9083 65.5709H20C20 37.1335 43.1357 14 71.5709 14V20.9083C46.9433 20.9083 26.9083 40.9433 26.9083 65.5709Z" fill="#2CAAE1"/>
<path d="M42.9476 65.5708H36.0393C36.0393 45.9791 51.9791 30.0392 71.5709 30.0392V36.9475C55.7889 36.9475 42.9476 49.7867 42.9476 65.5708Z" fill="#2CAAE1"/>
<path d="M58.9868 65.5709H52.0785C52.0785 54.8226 60.8225 46.0786 71.5708 46.0786V52.9869C64.6323 52.9869 58.9868 58.6324 58.9868 65.5709Z" fill="#2CAAE1"/>
</svg>
